<?xml version="1.0" encoding="UTF-8"?>
<svg width="200" height="100" viewBox="0 0 200 100" fill="none" xmlns="http://www.w3.org/2000/svg">
  <!-- Main body -->
  <rect x="20" y="30" width="160" height="40" rx="4" fill="#FF0000"/>
  
  <!-- Windows -->
  <rect x="40" y="35" width="30" height="15" rx="2" fill="white"/>
  <rect x="80" y="35" width="30" height="15" rx="2" fill="white"/>
  <rect x="120" y="35" width="30" height="15" rx="2" fill="white"/>
  
  <!-- Wheels -->
  <circle cx="50" cy="75" r="8" fill="white"/>
  <circle cx="150" cy="75" r="8" fill="white"/>
  <circle cx="50" cy="75" r="4" fill="#333"/>
  <circle cx="150" cy="75" r="4" fill="#333"/>
  
  <!-- Emergency lights -->
  <rect x="40" y="20" width="10" height="5" fill="#FFD700"/>
  <rect x="150" y="20" width="10" height="5" fill="#FFD700"/>
  
  <!-- Medical cross -->
  <path d="M100 45L110 45L110 55L120 55L120 65L110 65L110 75L100 75L100 65L90 65L90 55L100 55Z" fill="white"/>
  
  <!-- Siren light -->
  <circle cx="100" cy="25" r="5" fill="#FFD700"/>
  
  <!-- Front grill -->
  <rect x="170" y="40" width="10" height="20" fill="#CC0000"/>
  <path d="M170 45L180 45M170 50L180 50M170 55L180 55" stroke="white" stroke-width="1"/>
  
  <!-- Headlights -->
  <circle cx="185" cy="40" r="3" fill="#FFD700"/>
  <circle cx="185" cy="60" r="3" fill="#FFD700"/>
  
  <!-- Side details -->
  <rect x="30" y="45" width="5" height="10" fill="#CC0000"/>
  <rect x="165" y="45" width="5" height="10" fill="#CC0000"/>
  
  <!-- Emergency stripes -->
  <rect x="60" y="35" width="10" height="5" fill="#FFD700"/>
  <rect x="140" y="35" width="10" height="5" fill="#FFD700"/>
  
  <!-- Door handles -->
  <rect x="45" y="45" width="20" height="2" fill="#CC0000"/>
  <rect x="85" y="45" width="20" height="2" fill="#CC0000"/>
  <rect x="125" y="45" width="20" height="2" fill="#CC0000"/>
</svg> 